<?xml version="1.0" encoding="UTF-8" standalone="no"?>
<!DOCTYPE svg PUBLIC "-//W3C//DTD SVG 1.1//EN" "http://www.w3.org/Graphics/SVG/1.1/DTD/svg11.dtd">
<svg width="100%" height="100%" viewBox="0 0 3000 3000" version="1.1" xmlns="http://www.w3.org/2000/svg" xmlns:xlink="http://www.w3.org/1999/xlink" xml:space="preserve" xmlns:serif="http://www.serif.com/" style="fill-rule:evenodd;clip-rule:evenodd;stroke-linejoin:round;stroke-miterlimit:2;">
    <g transform="matrix(0.895545,0,0,0.798921,228.296,271.333)">
        <ellipse cx="2714.47" cy="1768.81" rx="200.398" ry="233.914" style="fill:white;"/>
    </g>
    <g transform="matrix(0.939158,0.415619,-0.434411,0.981621,652.597,-1149.43)">
        <ellipse cx="2776.17" cy="1273.46" rx="143.562" ry="158.344" style="fill:white;"/>
    </g>
    <g transform="matrix(1,0,0,1,-17.9228,4.02923)">
        <path d="M2574.65,1192.01C2653,1058.99 2616.33,1019.68 2596.57,983.18C2602.77,935.002 2324.96,965.426 2303.42,648.457C2291.24,469.242 1941.31,173.277 1706.03,184.509C1408.02,182.819 1120.6,340.475 891.237,590.83C507.66,751.288 139.648,1022.55 140.343,1479.31C175.399,1783.27 313.092,1932.98 417.885,1938.03C510.754,1954.5 523.369,1750.9 568.52,1494.17C444.148,2084.7 671.12,2376.24 926.791,2274.76C979.697,2253.76 933.523,1965.77 915.791,1772.88C854.552,2462.73 1631.32,2835.27 1745.82,2495.54C1798.65,2338.8 617.003,1184.38 1599.71,598.326C1921.66,471.627 1937.02,783.177 2022.16,1065.26C2045.41,1142.27 2173.35,1129.34 2256.4,1301.62C2279.24,1349 2345.18,1398.38 2432.66,1387.6C2506.32,1386.98 2528.13,1295.78 2574.65,1192.01Z" style="fill:white;"/>
    </g>
    <g transform="matrix(1,0,0,1,-0.524285,-4.2137)">
        <path d="M2410.95,1431.26C2273.88,1396.23 2220.82,1277.84 2132.17,1219.4C1940.94,1093.32 1892.79,870.52 1857.12,696.721C1801.26,424.619 1259.36,770.386 1230.88,1282.24C1277.24,1753.31 1581.65,1785.99 1669.34,1374.32C1687.22,1689.81 1770.15,1848.88 1993.78,1669.7C2203.16,1901.54 2390.85,1861.11 2492.26,1588.91C2522.38,1518.68 2457.56,1474.81 2410.95,1431.26Z" style="fill:white;"/>
    </g>
</svg>
